# xmcd
#
# Track frame offsets: 
#        150
#        16971
#        44103
#        65228
#        78836
#        99964
#        120320
#        128907
#        151675
#        171585
#        197029
#        210532
#        231723
#        255650
#        275060
#        291571
#
# Disc length: 4043 seconds
#
# Revision: 1
# Processed by: cddbd v1.5.2PL0 Copyright (c) Steve Scherf et al.
# Submitted via: ExactAudioCopy v0.99pb5
#
DISCID=f20fc910
DTITLE=Afro Latin Vintage Orchestra - Pulsion
DYEAR=2014
DGENRE=Funk
TTITLE0=Kagemusha
TTITLE1=Pulsion
TTITLE2=Rituel
TTITLE3=Resurrection
TTITLE4=La Traque
TTITLE5=Homo Analog
TTITLE6=Audio Synthese 
TTITLE7=La Blanche 
TTITLE8=Complot
TTITLE9=Shaman 
TTITLE10=Drama 
TTITLE11=En Sursis
TTITLE12=Chroniques Marxiennes
TTITLE13=French Connexion
TTITLE14=Code Panthera 
TTITLE15=Kung Fu
EXTD=
EXTT0=
EXTT1=
EXTT2=
EXTT3=
EXTT4=
EXTT5=
EXTT6=
EXTT7=
EXTT8=
EXTT9=
EXTT10=
EXTT11=
EXTT12=
EXTT13=
EXTT14=
EXTT15=
PLAYORDER=
